<?xml version="1.0" encoding="UTF-8"?>
<svg xmlns="http://www.w3.org/2000/svg" width="512" height="512" viewBox="0 0 512 512" role="img" aria-labelledby="ttl dsc">
  <title id="ttl">Cute ginger tabby kitten</title>
  <desc id="dsc">A fluffy ginger tabby kitten sitting upright, with big green eyes, a pink nose, a teal collar with a gold bell, and a curled tail, on a soft mint background with a ball of yarn.</desc>

  <defs>
    <linearGradient id="bgSky" x1="0" y1="0" x2="0" y2="1">
      <stop offset="0" stop-color="#F7FCF9"/>
      <stop offset="0.55" stop-color="#E4F3EC"/>
      <stop offset="1" stop-color="#C9E6DB"/>
    </linearGradient>
    <radialGradient id="glow" cx="0.5" cy="0.46" r="0.56">
      <stop offset="0" stop-color="#FFFDF3" stop-opacity="0.95"/>
      <stop offset="0.62" stop-color="#FFF6E4" stop-opacity="0.45"/>
      <stop offset="1" stop-color="#FFF1DC" stop-opacity="0"/>
    </radialGradient>

    <radialGradient id="furHead" cx="0.36" cy="0.28" r="0.82">
      <stop offset="0" stop-color="#FFE9C8"/>
      <stop offset="0.42" stop-color="#FBCD96"/>
      <stop offset="0.78" stop-color="#F0B06D"/>
      <stop offset="1" stop-color="#DD9250"/>
    </radialGradient>
    <linearGradient id="furBody" x1="0.22" y1="0" x2="0.82" y2="1">
      <stop offset="0" stop-color="#FCD5A5"/>
      <stop offset="0.5" stop-color="#F4BC81"/>
      <stop offset="1" stop-color="#DC9250"/>
    </linearGradient>
    <linearGradient id="furTail" x1="0" y1="1" x2="1" y2="0">
      <stop offset="0" stop-color="#EFAF6C"/>
      <stop offset="1" stop-color="#FBD09B"/>
    </linearGradient>
    <linearGradient id="creamG" x1="0" y1="0" x2="0.3" y2="1">
      <stop offset="0" stop-color="#FFFDF8"/>
      <stop offset="0.6" stop-color="#FCF0DE"/>
      <stop offset="1" stop-color="#F2DCBE"/>
    </linearGradient>
    <radialGradient id="earPink" cx="0.5" cy="0.35" r="0.75">
      <stop offset="0" stop-color="#FDC4C8"/>
      <stop offset="0.6" stop-color="#F2A0AA"/>
      <stop offset="1" stop-color="#DE8090"/>
    </radialGradient>
    <radialGradient id="iris" cx="0.5" cy="0.6" r="0.58">
      <stop offset="0" stop-color="#FFEDA6"/>
      <stop offset="0.34" stop-color="#CFE277"/>
      <stop offset="0.7" stop-color="#74BB4E"/>
      <stop offset="1" stop-color="#2E7A3F"/>
    </radialGradient>
    <radialGradient id="pupilG" cx="0.4" cy="0.35" r="0.8">
      <stop offset="0" stop-color="#3B2722"/>
      <stop offset="1" stop-color="#170D0C"/>
    </radialGradient>
    <linearGradient id="noseG" x1="0" y1="0" x2="0.2" y2="1">
      <stop offset="0" stop-color="#FFB0BD"/>
      <stop offset="0.55" stop-color="#F5899C"/>
      <stop offset="1" stop-color="#DF6580"/>
    </linearGradient>
    <linearGradient id="collarG" x1="0" y1="0" x2="1" y2="1">
      <stop offset="0" stop-color="#7FD6E7"/>
      <stop offset="0.55" stop-color="#4FB6D2"/>
      <stop offset="1" stop-color="#3195B4"/>
    </linearGradient>
    <radialGradient id="bellG" cx="0.35" cy="0.28" r="0.85">
      <stop offset="0" stop-color="#FFF3C0"/>
      <stop offset="0.45" stop-color="#F7CB53"/>
      <stop offset="1" stop-color="#CF941B"/>
    </radialGradient>
    <radialGradient id="yarnG" cx="0.36" cy="0.3" r="0.85">
      <stop offset="0" stop-color="#FBD3DA"/>
      <stop offset="0.6" stop-color="#F2AFBC"/>
      <stop offset="1" stop-color="#D9899C"/>
    </radialGradient>

    <filter id="soft" x="-45%" y="-70%" width="190%" height="240%" color-interpolation-filters="sRGB">
      <feGaussianBlur stdDeviation="9"/>
    </filter>
    <filter id="soft2" x="-45%" y="-45%" width="190%" height="190%" color-interpolation-filters="sRGB">
      <feGaussianBlur stdDeviation="5"/>
    </filter>
    <filter id="soft3" x="-45%" y="-45%" width="190%" height="190%" color-interpolation-filters="sRGB">
      <feGaussianBlur stdDeviation="2.6"/>
    </filter>
    <filter id="furNoise" x="-4%" y="-4%" width="108%" height="108%" color-interpolation-filters="sRGB">
      <feTurbulence type="fractalNoise" baseFrequency="0.9 0.32" numOctaves="4" seed="11" result="n"/>
      <feColorMatrix in="n" type="matrix"
        values="0 0 0 0 0.42
                0 0 0 0 0.24
                0 0 0 0 0.10
                0.95 0.55 0 0 -0.55"/>
    </filter>

    <clipPath id="headClip">
      <path d="M256 108 C206 108 168 128 152 162 C138 192 138 230 150 258 C164 292 202 310 256 310 C310 310 348 292 362 258 C374 230 374 192 360 162 C344 128 306 108 256 108 Z"/>
    </clipPath>
    <clipPath id="bodyClip">
      <path d="M176 292 C150 316 128 366 124 408 C121 436 140 456 176 460 C210 466 302 466 336 460 C372 456 391 436 388 408 C384 366 362 316 336 292 C300 268 212 268 176 292 Z"/>
    </clipPath>
    <clipPath id="tailClip">
      <path d="M380 444 C430 452 456 436 460 382 C464 344 448 320 422 316 C408 314 404 332 418 334 C436 338 442 352 438 380 C434 424 414 428 378 420 Z"/>
    </clipPath>
    <clipPath id="eyeClip">
      <ellipse cx="0" cy="0" rx="36" ry="38"/>
    </clipPath>
    <clipPath id="yarnClip">
      <circle cx="92" cy="438" r="27"/>
    </clipPath>
  </defs>

  <!-- background -->
  <rect x="0" y="0" width="512" height="512" fill="url(#bgSky)"/>
  <ellipse cx="256" cy="562" rx="420" ry="132" fill="#B7DFD2" opacity="0.55"/>
  <rect x="0" y="0" width="512" height="512" fill="url(#glow)"/>

  <!-- sparkles -->
  <g fill="#FFFFFF" opacity="0.8">
    <g transform="translate(78,96) scale(17)">
      <path d="M0 -1 C0.12 -0.3 0.3 -0.12 1 0 C0.3 0.12 0.12 0.3 0 1 C-0.12 0.3 -0.3 0.12 -1 0 C-0.3 -0.12 -0.12 -0.3 0 -1 Z"/>
    </g>
    <g transform="translate(436,112) scale(13)" opacity="0.85">
      <path d="M0 -1 C0.12 -0.3 0.3 -0.12 1 0 C0.3 0.12 0.12 0.3 0 1 C-0.12 0.3 -0.3 0.12 -1 0 C-0.3 -0.12 -0.12 -0.3 0 -1 Z"/>
    </g>
    <g transform="translate(60,286) scale(10)" opacity="0.7">
      <path d="M0 -1 C0.12 -0.3 0.3 -0.12 1 0 C0.3 0.12 0.12 0.3 0 1 C-0.12 0.3 -0.3 0.12 -1 0 C-0.3 -0.12 -0.12 -0.3 0 -1 Z"/>
    </g>
    <g transform="translate(462,266) scale(15)" opacity="0.75">
      <path d="M0 -1 C0.12 -0.3 0.3 -0.12 1 0 C0.3 0.12 0.12 0.3 0 1 C-0.12 0.3 -0.3 0.12 -1 0 C-0.3 -0.12 -0.12 -0.3 0 -1 Z"/>
    </g>
    <g transform="translate(392,64) scale(8)" opacity="0.65">
      <path d="M0 -1 C0.12 -0.3 0.3 -0.12 1 0 C0.3 0.12 0.12 0.3 0 1 C-0.12 0.3 -0.3 0.12 -1 0 C-0.3 -0.12 -0.12 -0.3 0 -1 Z"/>
    </g>
    <g transform="translate(126,168) scale(7)" opacity="0.6">
      <path d="M0 -1 C0.12 -0.3 0.3 -0.12 1 0 C0.3 0.12 0.12 0.3 0 1 C-0.12 0.3 -0.3 0.12 -1 0 C-0.3 -0.12 -0.12 -0.3 0 -1 Z"/>
    </g>
  </g>

  <!-- faint paw prints on the floor -->
  <g fill="#FFFFFF" opacity="0.45">
    <g transform="translate(60,398) rotate(-16) scale(1.15)">
      <ellipse cx="0" cy="6" rx="13" ry="10.5"/>
      <circle cx="-13" cy="-8" r="5.2"/>
      <circle cx="-4.5" cy="-13" r="5.5"/>
      <circle cx="5.5" cy="-13" r="5.5"/>
      <circle cx="14" cy="-7" r="5.2"/>
    </g>
    <g transform="translate(448,352) rotate(14) scale(0.95)">
      <ellipse cx="0" cy="6" rx="13" ry="10.5"/>
      <circle cx="-13" cy="-8" r="5.2"/>
      <circle cx="-4.5" cy="-13" r="5.5"/>
      <circle cx="5.5" cy="-13" r="5.5"/>
      <circle cx="14" cy="-7" r="5.2"/>
    </g>
  </g>

  <!-- ball of yarn -->
  <ellipse cx="96" cy="466" rx="30" ry="7" fill="#2A5A4E" opacity="0.14" filter="url(#soft2)"/>
  <path d="M116 422 C128 408 142 404 152 410" fill="none" stroke="#E8A3B2" stroke-width="3.4" stroke-linecap="round" opacity="0.9"/>
  <circle cx="92" cy="438" r="27" fill="url(#yarnG)"/>
  <g clip-path="url(#yarnClip)" fill="none" stroke="#D9899C" stroke-width="3" stroke-linecap="round" opacity="0.75">
    <path d="M66 424 C82 434 96 446 110 462"/>
    <path d="M70 412 C88 428 104 442 116 452"/>
    <path d="M63 440 C80 449 98 452 120 447"/>
    <path d="M72 458 C84 448 96 432 100 412"/>
    <path d="M88 466 C96 450 108 436 120 428"/>
  </g>
  <ellipse cx="82" cy="427" rx="10" ry="6.5" fill="#FFFFFF" opacity="0.3"/>

  <!-- contact shadow -->
  <ellipse cx="256" cy="466" rx="172" ry="21" fill="#2A5A4E" opacity="0.18" filter="url(#soft)"/>

  <!-- tail -->
  <g>
    <path d="M380 444 C430 452 456 436 460 382 C464 344 448 320 422 316 C408 314 404 332 418 334 C436 338 442 352 438 380 C434 424 414 428 378 420 Z" fill="url(#furTail)"/>
    <g clip-path="url(#tailClip)">
      <g fill="none" stroke="#C4703A" stroke-width="13" stroke-linecap="round" opacity="0.72">
        <path d="M405 462 L400 402"/>
        <path d="M427 394 L478 404"/>
        <path d="M429 344 L474 334"/>
      </g>
      <ellipse cx="421" cy="322" rx="16" ry="14" fill="#C4703A" opacity="0.72"/>
      <rect x="360" y="300" width="120" height="180" fill="#FFFFFF" filter="url(#furNoise)" opacity="0.24"/>
      <path d="M392 434 C424 442 446 424 452 386" fill="none" stroke="#FFEBCB" stroke-width="7" opacity="0.4" filter="url(#soft3)"/>
    </g>
  </g>

  <!-- body -->
  <g>
    <path d="M176 292 C150 316 128 366 124 408 C121 436 140 456 176 460 C210 466 302 466 336 460 C372 456 391 436 388 408 C384 366 362 316 336 292 C300 268 212 268 176 292 Z" fill="url(#furBody)"/>
    <g clip-path="url(#bodyClip)">
      <g fill="none" stroke="#C97239" stroke-width="12" stroke-linecap="round" opacity="0.5">
        <path d="M126 328 C148 334 162 344 170 356"/>
        <path d="M118 372 C142 376 158 382 168 392"/>
        <path d="M120 414 C144 416 158 420 170 428"/>
        <path d="M386 328 C364 334 350 344 342 356"/>
        <path d="M394 372 C370 376 354 382 344 392"/>
        <path d="M392 414 C368 416 354 420 342 428"/>
      </g>
      <g fill="none" stroke="#FFE7C4" stroke-width="2.6" stroke-linecap="round" opacity="0.32">
        <path d="M152 336 C160 356 164 376 162 398"/>
        <path d="M178 320 C186 342 190 364 188 388"/>
        <path d="M136 372 C144 392 148 410 148 430"/>
        <path d="M360 336 C352 356 348 376 350 398"/>
        <path d="M334 320 C326 342 322 364 324 388"/>
        <path d="M376 372 C368 392 364 410 364 430"/>
      </g>
      <rect x="118" y="262" width="278" height="212" fill="#FFFFFF" filter="url(#furNoise)" opacity="0.3"/>
      <path d="M186 288 C158 312 138 356 132 396" fill="none" stroke="#FFEDCF" stroke-width="13" opacity="0.45" filter="url(#soft3)"/>
      <path d="M380 398 C376 434 350 458 314 464" fill="none" stroke="#C67F42" stroke-width="20" opacity="0.32" filter="url(#soft2)"/>
    </g>
  </g>

  <!-- hind paws -->
  <g>
    <ellipse cx="150" cy="450" rx="38" ry="18" fill="url(#creamG)"/>
    <ellipse cx="362" cy="450" rx="38" ry="18" fill="url(#creamG)"/>
    <g fill="none" stroke="#E6BE95" stroke-width="3" stroke-linecap="round" opacity="0.8">
      <path d="M138 435 C136 442 136 452 139 461"/>
      <path d="M162 435 C164 442 164 452 161 461"/>
      <path d="M350 435 C348 442 348 452 351 461"/>
      <path d="M374 435 C376 442 376 452 373 461"/>
    </g>
  </g>

  <!-- chest and belly -->
  <path d="M256 296 C214 296 190 330 188 372 C186 414 210 450 256 456 C302 450 326 414 324 372 C322 330 298 296 256 296 Z" fill="url(#creamG)"/>
  <path d="M300 320 C322 348 326 400 306 438" fill="none" stroke="#EAD3B4" stroke-width="14" opacity="0.5" filter="url(#soft2)"/>

  <!-- fluffy ruff under the chin -->
  <path d="M168 320 C176 296 186 288 198 300 C204 282 220 280 228 296 C238 282 254 284 258 300 C264 284 280 282 288 296 C296 280 312 282 316 300 C328 288 338 296 344 320 C320 336 192 336 168 320 Z" fill="#FFF9F0"/>

  <!-- shadow the head casts on the chest -->
  <ellipse cx="256" cy="304" rx="122" ry="34" fill="#C98A56" opacity="0.32" filter="url(#soft)"/>

  <!-- collar and bell -->
  <path d="M192 292 C202 334 310 334 320 292" fill="none" stroke="url(#collarG)" stroke-width="19" stroke-linecap="round"/>
  <path d="M200 300 C212 328 300 328 312 300" fill="none" stroke="#BDEEF7" stroke-width="4.5" stroke-linecap="round" opacity="0.5"/>
  <circle cx="256" cy="333" r="5.5" fill="none" stroke="#D6A128" stroke-width="3"/>
  <circle cx="256" cy="348" r="14" fill="url(#bellG)"/>
  <path d="M244 346 C250 351 262 351 268 346" fill="none" stroke="#B8801A" stroke-width="2.4" opacity="0.85"/>
  <path d="M256 352 L256 361" stroke="#8A5E10" stroke-width="3" stroke-linecap="round"/>
  <circle cx="256" cy="350" r="2.6" fill="#8A5E10"/>
  <ellipse cx="250" cy="342" rx="4.4" ry="2.8" fill="#FFFFFF" opacity="0.75" transform="rotate(-25 250 342)"/>

  <!-- front legs and paws -->
  <g>
    <path d="M190 366 C185 398 185 424 190 442 Q195 460 216 460 Q237 460 242 442 C247 424 247 398 242 366 Z" fill="url(#creamG)"/>
    <path d="M322 366 C327 398 327 424 322 442 Q317 460 296 460 Q275 460 270 442 C265 424 265 398 270 366 Z" fill="url(#creamG)"/>
    <ellipse cx="216" cy="448" rx="31" ry="16" fill="url(#creamG)"/>
    <ellipse cx="296" cy="448" rx="31" ry="16" fill="url(#creamG)"/>
    <g fill="none" stroke="#E6BE95" stroke-width="3.2" stroke-linecap="round" opacity="0.85">
      <path d="M206 434 C204 442 204 451 206 458"/>
      <path d="M226 434 C228 442 228 451 226 458"/>
      <path d="M286 434 C284 442 284 451 286 458"/>
      <path d="M306 434 C308 442 308 451 306 458"/>
    </g>
    <path d="M238 372 C244 396 244 424 240 442" fill="none" stroke="#E9D2B3" stroke-width="7" opacity="0.55" filter="url(#soft3)"/>
    <path d="M318 372 C324 396 324 424 320 442" fill="none" stroke="#E9D2B3" stroke-width="7" opacity="0.55" filter="url(#soft3)"/>
  </g>

  <!-- ears (behind the head) -->
  <path d="M164 148 C156 118 148 90 145 66 C143 52 152 45 163 51 C190 66 218 88 238 112 C212 112 182 126 164 148 Z" fill="url(#furHead)"/>
  <path d="M348 148 C356 118 364 90 367 66 C369 52 360 45 349 51 C322 66 294 88 274 112 C300 112 330 126 348 148 Z" fill="url(#furHead)"/>

  <!-- fur tufts poking out behind the head -->
  <g fill="#E9A365">
    <path d="M143 220 L121 224 L146 238 Z"/>
    <path d="M146 238 L118 248 L150 258 Z"/>
    <path d="M150 258 L128 272 L158 280 Z"/>
    <path d="M158 280 L142 298 L174 302 Z"/>
    <path d="M369 220 L391 224 L366 238 Z"/>
    <path d="M366 238 L394 248 L362 258 Z"/>
    <path d="M362 258 L384 272 L354 280 Z"/>
    <path d="M354 280 L370 298 L338 302 Z"/>
    <path d="M234 116 L239 96 L252 112 Z"/>
    <path d="M252 112 L262 92 L272 110 Z"/>
    <path d="M272 110 L285 96 L288 116 Z"/>
  </g>

  <!-- head -->
  <path d="M256 108 C206 108 168 128 152 162 C138 192 138 230 150 258 C164 292 202 310 256 310 C310 310 348 292 362 258 C374 230 374 192 360 162 C344 128 306 108 256 108 Z" fill="url(#furHead)"/>

  <g clip-path="url(#headClip)">
    <ellipse cx="212" cy="152" rx="54" ry="34" fill="#FFF2D8" opacity="0.32" filter="url(#soft2)"/>
    <g fill="none" stroke="#C4703A" stroke-linecap="round" opacity="0.72">
      <path d="M250 116 C247 132 249 146 253 158" stroke-width="9"/>
      <path d="M264 116 C267 132 265 146 261 158" stroke-width="9"/>
      <path d="M222 122 C216 138 216 152 220 162" stroke-width="8"/>
      <path d="M290 122 C296 138 296 152 292 162" stroke-width="8"/>
      <path d="M180 146 C172 160 170 172 175 182" stroke-width="7"/>
      <path d="M332 146 C340 160 342 172 337 182" stroke-width="7"/>
    </g>
    <g fill="none" stroke="#C4703A" stroke-linecap="round" opacity="0.55">
      <path d="M168 240 C152 244 142 250 136 258" stroke-width="9"/>
      <path d="M172 262 C156 270 148 278 144 288" stroke-width="9"/>
      <path d="M344 240 C360 244 370 250 376 258" stroke-width="9"/>
      <path d="M340 262 C356 270 364 278 368 288" stroke-width="9"/>
    </g>
    <g fill="none" stroke="#FFE7C4" stroke-width="2.6" stroke-linecap="round" opacity="0.35">
      <path d="M160 176 C150 190 144 204 143 218"/>
      <path d="M176 152 C164 164 156 178 152 192"/>
      <path d="M352 176 C362 190 368 204 369 218"/>
      <path d="M336 152 C348 164 356 178 360 192"/>
    </g>
    <rect x="132" y="102" width="248" height="214" fill="#FFFFFF" filter="url(#furNoise)" opacity="0.26"/>
    <path d="M256 112 C210 112 174 130 158 164" fill="none" stroke="#FFF8EA" stroke-width="10" opacity="0.5" filter="url(#soft3)"/>
    <path d="M368 226 C363 266 338 296 300 306" fill="none" stroke="#C67F42" stroke-width="17" opacity="0.32" filter="url(#soft2)"/>
  </g>

  <!-- inner ears -->
  <path d="M174 144 C167 118 160 95 157 76 C156 67 162 62 169 67 C191 80 213 99 228 118 C207 120 187 130 174 144 Z" fill="url(#earPink)"/>
  <path d="M338 144 C345 118 352 95 355 76 C356 67 350 62 343 67 C321 80 299 99 284 118 C305 120 325 130 338 144 Z" fill="url(#earPink)"/>
  <g fill="none" stroke="#FFF3E2" stroke-width="4" stroke-linecap="round" opacity="0.9">
    <path d="M198 128 C190 122 184 120 178 122"/>
    <path d="M210 118 C202 110 196 106 190 106"/>
    <path d="M218 110 C212 102 206 98 200 96"/>
    <path d="M314 128 C322 122 328 120 334 122"/>
    <path d="M302 118 C310 110 316 106 322 106"/>
    <path d="M294 110 C300 102 306 98 312 96"/>
  </g>

  <!-- muzzle -->
  <path d="M256 260 C240 252 210 254 202 270 C194 288 208 304 228 304 C242 304 252 296 256 288 C260 296 270 304 284 304 C304 304 318 288 310 270 C302 252 272 254 256 260 Z" fill="#C99257" opacity="0.3" filter="url(#soft2)"/>
  <path d="M256 255 C240 247 210 249 202 265 C194 283 208 299 228 299 C242 299 252 291 256 283 C260 291 270 299 284 299 C304 299 318 283 310 265 C302 247 272 249 256 255 Z" fill="#FFF9F1"/>
  <ellipse cx="256" cy="300" rx="26" ry="9" fill="#FFF6E8" opacity="0.9"/>
  <g fill="#E3B98F" opacity="0.75">
    <circle cx="220" cy="266" r="2.1"/>
    <circle cx="233" cy="272" r="2.1"/>
    <circle cx="218" cy="280" r="2.1"/>
    <circle cx="292" cy="266" r="2.1"/>
    <circle cx="279" cy="272" r="2.1"/>
    <circle cx="294" cy="280" r="2.1"/>
  </g>

  <!-- nose and mouth -->
  <path d="M242 242 C245 237 267 237 270 242 C273 248 263 261 258 264 C256.6 264.8 255.4 264.8 254 264 C249 261 239 248 242 242 Z" fill="url(#noseG)"/>
  <ellipse cx="250" cy="245" rx="4.2" ry="2.5" fill="#FFFFFF" opacity="0.6" transform="rotate(-22 250 245)"/>
  <g fill="none" stroke="#7A4A33" stroke-width="4.4" stroke-linecap="round">
    <path d="M256 264 L256 277"/>
    <path d="M256 277 C251 291 234 293 227 282"/>
    <path d="M256 277 C261 291 278 293 285 282"/>
  </g>

  <!-- eyes -->
  <g transform="translate(208,208)">
    <ellipse cx="0" cy="0" rx="39" ry="41" fill="#55372A"/>
    <ellipse cx="0" cy="0" rx="36" ry="38" fill="url(#iris)"/>
    <g clip-path="url(#eyeClip)">
      <path d="M0 0 L0 -36 M0 0 L24 -26 M0 0 L34 0 M0 0 L24 26 M0 0 L0 36 M0 0 L-24 26 M0 0 L-34 0 M0 0 L-24 -26" fill="none" stroke="#2C6B36" stroke-width="2.4" opacity="0.28"/>
      <ellipse cx="0" cy="-34" rx="40" ry="22" fill="#1F5230" opacity="0.3"/>
      <ellipse cx="0" cy="35" rx="30" ry="15" fill="#FFF6B8" opacity="0.35"/>
      <ellipse cx="0" cy="0" rx="15" ry="24" fill="url(#pupilG)"/>
      <ellipse cx="0" cy="0" rx="36" ry="38" fill="none" stroke="#26401F" stroke-width="5" opacity="0.4"/>
    </g>
    <circle cx="-13" cy="-16" r="11.5" fill="#FFFFFF" opacity="0.95"/>
    <circle cx="12" cy="15" r="5.5" fill="#FFFFFF" opacity="0.7"/>
    <circle cx="-23" cy="6" r="3" fill="#FFFFFF" opacity="0.5"/>
  </g>
  <g transform="translate(304,208)">
    <ellipse cx="0" cy="0" rx="39" ry="41" fill="#55372A"/>
    <ellipse cx="0" cy="0" rx="36" ry="38" fill="url(#iris)"/>
    <g clip-path="url(#eyeClip)">
      <path d="M0 0 L0 -36 M0 0 L24 -26 M0 0 L34 0 M0 0 L24 26 M0 0 L0 36 M0 0 L-24 26 M0 0 L-34 0 M0 0 L-24 -26" fill="none" stroke="#2C6B36" stroke-width="2.4" opacity="0.28"/>
      <ellipse cx="0" cy="-34" rx="40" ry="22" fill="#1F5230" opacity="0.3"/>
      <ellipse cx="0" cy="35" rx="30" ry="15" fill="#FFF6B8" opacity="0.35"/>
      <ellipse cx="0" cy="0" rx="15" ry="24" fill="url(#pupilG)"/>
      <ellipse cx="0" cy="0" rx="36" ry="38" fill="none" stroke="#26401F" stroke-width="5" opacity="0.4"/>
    </g>
    <circle cx="-13" cy="-16" r="11.5" fill="#FFFFFF" opacity="0.95"/>
    <circle cx="12" cy="15" r="5.5" fill="#FFFFFF" opacity="0.7"/>
    <circle cx="-23" cy="6" r="3" fill="#FFFFFF" opacity="0.5"/>
  </g>

  <!-- lash tufts -->
  <g stroke="#55372A" stroke-width="4.4" stroke-linecap="round">
    <path d="M172 190 L157 179"/>
    <path d="M182 176 L171 162"/>
    <path d="M197 167 L191 152"/>
    <path d="M340 190 L355 179"/>
    <path d="M330 176 L341 162"/>
    <path d="M315 167 L321 152"/>
  </g>

  <!-- whiskers -->
  <g fill="none" stroke="#3E5A50" stroke-width="3" stroke-linecap="round" opacity="0.13" transform="translate(0,3)">
    <path d="M204 262 C164 246 120 238 78 238"/>
    <path d="M200 273 C158 269 114 271 74 277"/>
    <path d="M204 285 C166 293 128 305 96 321"/>
    <path d="M308 262 C348 246 392 238 434 238"/>
    <path d="M312 273 C354 269 398 271 438 277"/>
    <path d="M308 285 C346 293 384 305 416 321"/>
    <path d="M196 150 C172 136 152 128 132 126"/>
    <path d="M202 138 C182 122 166 112 150 106"/>
    <path d="M316 150 C340 136 360 128 380 126"/>
    <path d="M310 138 C330 122 346 112 362 106"/>
  </g>
  <g fill="none" stroke="#FFFDF7" stroke-width="3" stroke-linecap="round" opacity="0.92">
    <path d="M204 262 C164 246 120 238 78 238"/>
    <path d="M200 273 C158 269 114 271 74 277"/>
    <path d="M204 285 C166 293 128 305 96 321"/>
    <path d="M308 262 C348 246 392 238 434 238"/>
    <path d="M312 273 C354 269 398 271 438 277"/>
    <path d="M308 285 C346 293 384 305 416 321"/>
  </g>
  <g fill="none" stroke="#FFFDF7" stroke-width="2.4" stroke-linecap="round" opacity="0.8">
    <path d="M196 150 C172 136 152 128 132 126"/>
    <path d="M202 138 C182 122 166 112 150 106"/>
    <path d="M316 150 C340 136 360 128 380 126"/>
    <path d="M310 138 C330 122 346 112 362 106"/>
  </g>
</svg>
